<svg width="588" height="148" viewBox="0 0 588 148" fill="none" xmlns="http://www.w3.org/2000/svg">
<path d="M397.181 74C397.181 113.375 363.633 145.5 321.99 145.5C280.346 145.5 246.798 113.375 246.798 74C246.798 34.6249 280.346 2.5 321.99 2.5C363.633 2.5 397.181 34.6249 397.181 74Z" fill="black" stroke="black" stroke-width="5"/>
<path d="M40.2812 75.125H24.625V63.9688H42.9531V59H19.6094V97.7656H24.625V80.0469H40.2812V75.125ZM35.9688 54.7812C39.125 54.7812 41.9844 55.25 44.5469 56.1875C47.1094 57.125 49.2812 58.4062 51.0625 60.0312C52.875 61.6562 54.2656 63.5625 55.2344 65.75C56.2031 67.9062 56.6875 70.2031 56.6875 72.6406V101.141C56.6875 103.578 56.2031 105.891 55.2344 108.078C54.2656 110.234 52.875 112.125 51.0625 113.75C49.2812 115.375 47.1094 116.656 44.5469 117.594C41.9844 118.531 39.125 119 35.9688 119H21.5312C18.375 119 15.5156 118.531 12.9531 117.594C10.3906 116.656 8.20312 115.375 6.39062 113.75C4.60938 112.125 3.23438 110.234 2.26562 108.078C1.29688 105.891 0.8125 103.578 0.8125 101.141V72.6406C0.8125 70.2031 1.29688 67.9062 2.26562 65.75C3.23438 63.5625 4.60938 61.6562 6.39062 60.0312C8.20312 58.4062 10.3906 57.125 12.9531 56.1875C15.5156 55.25 18.375 54.7812 21.5312 54.7812H35.9688ZM92.4287 54.7812C95.585 54.7812 98.4444 55.25 101.007 56.1875C103.569 57.125 105.741 58.4062 107.522 60.0312C109.335 61.6562 110.726 63.5625 111.694 65.75C112.663 67.9062 113.147 70.2031 113.147 72.6406V101.141C113.147 103.578 112.663 105.891 111.694 108.078C110.726 110.234 109.335 112.125 107.522 113.75C105.741 115.375 103.569 116.656 101.007 117.594C98.4444 118.531 95.585 119 92.4287 119H77.9912C74.835 119 71.9756 118.531 69.4131 117.594C66.8506 116.656 64.6631 115.375 62.8506 113.75C61.0694 112.125 59.6944 110.234 58.7256 108.078C57.7569 105.891 57.2725 103.578 57.2725 101.141V72.6406C57.2725 70.2031 57.7569 67.9062 58.7256 65.75C59.6944 63.5625 61.0694 61.6562 62.8506 60.0312C64.6631 58.4062 66.8506 57.125 69.4131 56.1875C71.9756 55.25 74.835 54.7812 77.9912 54.7812H92.4287ZM102.085 66.5938L101.429 62.6562L98.4756 59.6562L93.6475 59H81.085L76.3037 59.6562L73.3037 62.6562L72.7412 66.5938V90.2188L73.3037 94.25L76.3975 97.2031L81.085 97.7656H93.6475L98.4756 97.2031L101.429 94.25L102.085 90.2188V66.5938ZM96.46 92.3281L93.3662 92.7969H81.3662L78.3194 92.3281L77.6162 89.5156V67.0625L78.085 64.4844L81.3662 63.9688H93.3662L96.6475 64.4844L97.1162 67.25V89.7031L96.46 92.3281ZM148.889 54.7812C152.045 54.7812 154.904 55.25 157.467 56.1875C160.029 57.125 162.201 58.4062 163.982 60.0312C165.795 61.6562 167.186 63.5625 168.154 65.75C169.123 67.9062 169.607 70.2031 169.607 72.6406V101.141C169.607 103.578 169.123 105.891 168.154 108.078C167.186 110.234 165.795 112.125 163.982 113.75C162.201 115.375 160.029 116.656 157.467 117.594C154.904 118.531 152.045 119 148.889 119H134.451C131.295 119 128.436 118.531 125.873 117.594C123.311 116.656 121.123 115.375 119.311 113.75C117.529 112.125 116.154 110.234 115.186 108.078C114.217 105.891 113.732 103.578 113.732 101.141V72.6406C113.732 70.2031 114.217 67.9062 115.186 65.75C116.154 63.5625 117.529 61.6562 119.311 60.0312C121.123 58.4062 123.311 57.125 125.873 56.1875C128.436 55.25 131.295 54.7812 134.451 54.7812H148.889ZM158.545 66.5938L157.889 62.6562L154.936 59.6562L150.107 59H137.545L132.764 59.6562L129.764 62.6562L129.201 66.5938V90.2188L129.764 94.25L132.857 97.2031L137.545 97.7656H150.107L154.936 97.2031L157.889 94.25L158.545 90.2188V66.5938ZM152.92 92.3281L149.826 92.7969H137.826L134.779 92.3281L134.076 89.5156V67.0625L134.545 64.4844L137.826 63.9688H149.826L153.107 64.4844L153.576 67.25V89.7031L152.92 92.3281ZM205.349 54.7812C208.505 54.7812 211.364 55.25 213.927 56.1875C216.489 57.125 218.661 58.4062 220.443 60.0312C222.255 61.6562 223.646 63.5625 224.614 65.75C225.583 67.9062 226.068 70.2031 226.068 72.6406V101.141C226.068 103.578 225.583 105.891 224.614 108.078C223.646 110.234 222.255 112.125 220.443 113.75C218.661 115.375 216.489 116.656 213.927 117.594C211.364 118.531 208.505 119 205.349 119H190.911C187.755 119 184.896 118.531 182.333 117.594C179.771 116.656 177.583 115.375 175.771 113.75C173.989 112.125 172.614 110.234 171.646 108.078C170.677 105.891 170.193 103.578 170.193 101.141V72.6406C170.193 70.2031 170.677 67.9062 171.646 65.75C172.614 63.5625 173.989 61.6562 175.771 60.0312C177.583 58.4062 179.771 57.125 182.333 56.1875C184.896 55.25 187.755 54.7812 190.911 54.7812H205.349ZM215.099 66.5938L214.443 62.6562L211.489 59.6562L206.661 59H185.755V97.7656H206.661L211.489 97.2031L214.443 94.25L215.099 90.2188V66.5938ZM209.474 92.3281L206.38 92.7969H190.63V63.9688H206.38L209.661 64.4844L210.13 67.25V89.7031L209.474 92.3281Z" fill="black"/>
<path d="M421.443 54.7812C424.6 54.7812 427.459 55.25 430.021 56.1875C432.584 57.125 434.756 58.4062 436.537 60.0312C438.35 61.6562 439.74 63.5625 440.709 65.75C441.678 67.9062 442.162 70.2031 442.162 72.6406V101.141C442.162 103.578 441.678 105.891 440.709 108.078C439.74 110.234 438.35 112.125 436.537 113.75C434.756 115.375 432.584 116.656 430.021 117.594C427.459 118.531 424.6 119 421.443 119H407.006C403.85 119 400.99 118.531 398.428 117.594C395.865 116.656 393.678 115.375 391.865 113.75C390.084 112.125 388.709 110.234 387.74 108.078C386.771 105.891 386.287 103.578 386.287 101.141V72.6406C386.287 70.2031 386.771 67.9062 387.74 65.75C388.709 63.5625 390.084 61.6562 391.865 60.0312C393.678 58.4062 395.865 57.125 398.428 56.1875C400.99 55.25 403.85 54.7812 407.006 54.7812H421.443ZM431.1 66.5938L430.443 62.6562L427.49 59.6562L422.662 59H410.1L405.318 59.6562L402.318 62.6562L401.756 66.5938V90.2188L402.318 94.25L405.412 97.2031L410.1 97.7656H422.662L427.49 97.2031L430.443 94.25L431.1 90.2188V66.5938ZM425.475 92.3281L422.381 92.7969H410.381L407.334 92.3281L406.631 89.5156V67.0625L407.1 64.4844L410.381 63.9688H422.381L425.662 64.4844L426.131 67.25V89.7031L425.475 92.3281ZM477.294 59H465.997L461.169 59.5625L458.216 62.5625L457.513 66.5V90.3125L458.216 94.25L461.263 97.2031L465.997 97.7656H477.294L482.778 97.1094L481.606 92.0469L477.2 92.7969H466.278L463.185 92.3281L462.528 89.5156V66.9688L462.997 64.3906L466.278 63.875H477.013L481.841 64.6719L482.778 59.6562L477.294 59ZM477.903 54.7812C481.06 54.7812 483.919 55.25 486.481 56.1875C489.044 57.125 491.216 58.4062 492.997 60.0312C494.81 61.6562 496.2 63.5625 497.169 65.75C498.138 67.9062 498.622 70.2031 498.622 72.6406V101.141C498.622 103.578 498.138 105.891 497.169 108.078C496.2 110.234 494.81 112.125 492.997 113.75C491.216 115.375 489.044 116.656 486.481 117.594C483.919 118.531 481.06 119 477.903 119H463.466C460.31 119 457.45 118.531 454.888 117.594C452.325 116.656 450.138 115.375 448.325 113.75C446.544 112.125 445.169 110.234 444.2 108.078C443.231 105.891 442.747 103.578 442.747 101.141V72.6406C442.747 70.2031 443.231 67.9062 444.2 65.75C445.169 63.5625 446.544 61.6562 448.325 60.0312C450.138 58.4062 452.325 57.125 454.888 56.1875C457.45 55.25 460.31 54.7812 463.466 54.7812H477.903ZM530.051 77.5156L546.176 61.5781L542.801 57.6406L523.488 76.7656V59H518.52V97.7656H523.488V83.0938C524.02 82.6562 524.473 82.2656 524.848 81.9219C525.254 81.5469 525.707 81.1406 526.207 80.7031L541.535 98.6562L545.566 95.1875L530.051 77.5156ZM534.363 54.7812C537.52 54.7812 540.379 55.25 542.941 56.1875C545.504 57.125 547.676 58.4062 549.457 60.0312C551.27 61.6562 552.66 63.5625 553.629 65.75C554.598 67.9062 555.082 70.2031 555.082 72.6406V101.141C555.082 103.578 554.598 105.891 553.629 108.078C552.66 110.234 551.27 112.125 549.457 113.75C547.676 115.375 545.504 116.656 542.941 117.594C540.379 118.531 537.52 119 534.363 119H519.926C516.77 119 513.91 118.531 511.348 117.594C508.785 116.656 506.598 115.375 504.785 113.75C503.004 112.125 501.629 110.234 500.66 108.078C499.691 105.891 499.207 103.578 499.207 101.141V72.6406C499.207 70.2031 499.691 67.9062 500.66 65.75C501.629 63.5625 503.004 61.6562 504.785 60.0312C506.598 58.4062 508.785 57.125 511.348 56.1875C513.91 55.25 516.77 54.7812 519.926 54.7812H534.363Z" fill="black"/>
<path d="M338.055 26.723L347.018 29.627L327.611 86.9464L356.552 96.3229L354.222 103.205L316.318 90.9242L338.055 26.723Z" fill="white"/>
<path d="M264.063 74.0281C264.116 55.3081 269.44 39.8425 280.034 27.6311C290.629 15.4198 304.266 9.33667 320.946 9.38182C335.466 9.42113 348.591 14.5567 360.323 24.7885C362.238 26.3537 363.2 25.7563 363.208 22.9963L363.233 13.9963C363.238 12.1963 364.141 11.2988 365.941 11.3036C367.741 11.3085 368.638 12.2109 368.633 14.0109L368.536 48.2108C368.531 50.0108 367.629 50.9084 365.829 50.9035C364.029 50.8986 363.131 49.9962 363.136 48.1962L363.172 35.5962C359.943 31.8675 356.172 28.4373 351.861 25.3056C342.041 18.319 331.731 14.811 320.931 14.7818C306.171 14.7418 293.915 20.4087 284.162 31.7823C274.411 43.036 269.51 57.2428 269.462 74.4027C269.414 91.4426 274.414 105.556 284.462 116.743C294.51 127.931 307.935 133.547 324.735 133.593C341.535 133.638 355.11 128.215 365.461 117.323C366.664 116.126 367.745 116.009 368.702 116.972C369.659 117.934 370.137 118.715 370.135 119.315C370.133 119.915 369.832 120.515 369.23 121.113C356.956 133.08 341.819 139.039 323.819 138.99C305.939 138.942 291.497 132.783 280.491 120.513C269.486 108.243 264.01 92.748 264.063 74.0281Z" fill="white"/>
</svg>
